{"title":"Loosies 2012 DVDRiP XViD-NoGRP","uid":6840956,"size":1492055388,"categoryP":"video","categoryS":"movies","magnet":"?xt=urn:btih:f438302742411ed0c68915286485eaab828f895e&amp;dn=Loosies+2012+DVDRiP+XViD-NoGRP&amp;tr=udp%3A%2F%2Ftracker.openbittorrent.com%3A80&amp;tr=udp%3A%2F%2Fopen.demonii.com%3A1337&amp;tr=udp%3A%2F%2Ftracker.coppersurfer.tk%3A6969&amp;tr=udp%3A%2F%2Fexodus.desync.com%3A6969","seeders":1,"leechers":0,"uploader":"tykoon123","files":104,"time":1322162212,"description":"Cover Image: &lt;a href=&quot;\nhttp://img37.imageshack.us/img37/4968/khvku.jpg&quot; rel=&quot;nofollow&quot; target=&quot;_NEW&quot;&gt;\nhttp://img37.imageshack.us/img37/4968/khvku.jpg&lt;/a&gt;\nGeneral\nComplete name : Loosies.2012.DVDRip.XviD-NoGRP.avi\nFormat : AVI\nFormat/Info : Audio Video Interleave\nFile size : 1.37 GiB\nDuration : 1h 28mn\nOverall bit rate : 2 214 Kbps\nWriting library : VirtualDub build 32839/release\n\n\nVideo\nID : 0\nFormat : MPEG-4 Visual\nFormat profile : Advanced Simple@L5\nFormat settings, BVOP : 2\nFormat settings, QPel : No\nFormat settings, GMC : No warppoints\nFormat settings, Matrix : Default (MPEG)\nMuxing mode : Packed bitstream\nCodec ID : XVID\nCodec ID/Hint : XviD\nDuration : 1h 28mn\nBit rate : 2 073 Kbps\nWidth : 720 pixels\nHeight : 400 pixels\nDisplay aspect ratio : 16:9\nFrame rate : 25.000 fps\nColor space : YUV\nChroma subsampling : 4:2:0\nBit depth : 8 bits\nScan type : Progressive\nCompression mode : Lossy\nBits/(Pixel*Frame) : 0.288\nStream size : 1.29 GiB (94%)\nWriting library : XviD 64\n\n\nAudio\nID : 1\nFormat : MPEG Audio\nFormat version : Version 1\nFormat profile : Layer 3\nCodec ID : 55\nCodec ID/Hint : MP3\nDuration : 1h 28mn\nBit rate mode : Constant\nBit rate : 128 Kbps\nChannel(s) : 2 channels\nSampling rate : 44.1 KHz\nCompression mode : Lossy\nStream size : 81.3 MiB (6%)\nAlignment : Aligned on interleaves\nInterleave, duration : 26 ms (0.65 video frame)\nInterleave, preload duration : 522 ms\n &lt;a href=&quot;\nhttp://www.imdb.com/title/tt1568337/&quot; rel=&quot;nofollow&quot; target=&quot;_NEW&quot;&gt;\nhttp://www.imdb.com/title/tt1568337/&lt;/a&gt;\nNot yet released\n(voting begins after release)\n\nA young pickpocket in the New York subways, living a fast, free, lifestyle is confronted by a woman whom he had a one night affair with... See full summary Ã‚Â»\nDirector:\nMichael Corrente\nWriters:\nPeter Facinelli (screenplay), Peter Facinelli (story)\nStars:\nPeter Facinelli, Jaimie Alexander and Michael Madsen\n\nScreens: &lt;a href=&quot;\nhttp://img831.imageshack.us/img831/9271/vlcsnap2011112418h37m31.png&quot; rel=&quot;nofollow&quot; target=&quot;_NEW&quot;&gt;\nhttp://img831.imageshack.us/img831/9271/vlcsnap2011112418h37m31.png&lt;/a&gt; &lt;a href=&quot;\nhttp://img443.imageshack.us/img443/1006/vlcsnap2011112418h37m46vg.png&quot; rel=&quot;nofollow&quot; target=&quot;_NEW&quot;&gt;\nhttp://img443.imageshack.us/img443/1006/vlcsnap2011112418h37m46vg.png&lt;/a&gt; &lt;a href=&quot;\nhttp://img850.imageshack.us/img850/1417/vlcsnap2011112418h39m03.png&quot; rel=&quot;nofollow&quot; target=&quot;_NEW&quot;&gt;\nhttp://img850.imageshack.us/img850/1417/vlcsnap2011112418h39m03.png&lt;/a&gt;\n","torrent":{"xt":"urn:btih:f438302742411ed0c68915286485eaab828f895e","amp;dn":"Loosies+2012+DVDRiP+XViD-NoGRP","amp;tr":["udp%3A%2F%2Ftracker.openbittorrent.com%3A80","udp%3A%2F%2Fopen.demonii.com%3A1337","udp%3A%2F%2Ftracker.coppersurfer.tk%3A6969","udp%3A%2F%2Fexodus.desync.com%3A6969"],"infoHash":"f438302742411ed0c68915286485eaab828f895e","infoHashBuffer":{"type":"Buffer","data":[244,56,48,39,66,65,30,208,198,137,21,40,100,133,234,171,130,143,137,94]},"announce":[],"urlList":[]}}